<svg width="217" height="211" viewBox="0 0 217 211" fill="none" xmlns="http://www.w3.org/2000/svg">
<g id="icon">
<g id="logo">
<path id="Vector" d="M91.489 169.01C92.157 138.286 90.906 109.383 90.975 107.577C91.074 105.005 74.03 108.638 71.929 106.524C69.828 104.41 68.62 88.319 71.408 86.933C74.196 85.547 86.763 88.062 89.415 86.407C92.067 84.752 77.902 31.138 136.016 42.986C137.605 43.781 135.884 61.718 134.957 63.108C134.03 64.498 122.249 61.321 115.895 66.285C109.541 71.249 112.188 84.949 113.512 85.876C114.836 86.803 133.7 86.074 134.957 87.465C136.214 88.856 136.413 106.263 134.957 107.587C133.501 108.911 114.138 105.177 112.188 106.529C110.582 107.642 116.412 166.567 114.746 168.902C113.08 171.237 107.015 171.035 103.186 171.128" stroke="black" stroke-width="4" stroke-miterlimit="10" stroke-linecap="round" stroke-linejoin="round"/>
</g>
<g id="circle">
<path id="Vector_2" d="M109.577 208.358C170.489 206.71 217.722 154.88 213.972 97.886C210.31 42.239 159.952 0.273997 105.049 2.133C49.39 4.017 2.02 50.605 2.68 106.555C4.229 193.998 88.185 209.165 91.88 208.106" stroke="black" stroke-width="4" stroke-miterlimit="10" stroke-linecap="round" stroke-linejoin="round"/>
</g>
</g>
</svg>
