<svg width="208" height="202" viewBox="0 0 208 202" fill="none" xmlns="http://www.w3.org/2000/svg">
<path id="logo" d="M106.164 199.986C170.081 196.429 214.831 147.929 203.423 83.486C194.135 31.016 142.701 -4.12699 90.684 2.90901C37.952 10.041 -2.60999 58.877 3.38601 112.004C9.07501 159.861 38.514 182.234 63.071 192.339C68.788 194.692 76.472 198.124 79.068 197.568C81.664 197.012 80.831 182.618 80.831 175.679C64.831 178.138 59.356 171.838 55.956 168.116C52.099 163.894 49.831 159.553 45.893 153.178C41.955 146.803 34.83 148.303 34.08 144.615C33.33 140.927 49.08 141.927 60.393 155.865C68.581 166.011 77.321 162.954 82.018 160.053C82.172 158.441 82.544 156.278 83.456 153.865C84.423 151.308 87.081 149.761 86.664 148.011C86.247 146.261 64.86 147.434 52.664 130.344C43.855 118 43.535 103.389 46.997 92.511C49.319 85.214 53.193 80.068 55.83 77.094C54.819 74.932 53.317 70.985 53.247 65.844C53.171 60.295 54.801 56.048 55.83 53.844C59.322 53.948 64.37 54.488 70.08 56.511C75.549 58.448 79.673 61.053 82.413 63.094C87.388 61.423 94.631 59.605 103.496 59.427C113.631 59.224 121.84 61.246 127.163 63.01C129.779 60.674 134.15 57.362 140.33 55.093C144.819 53.445 148.848 52.864 151.83 52.676C152.973 54.841 154.905 59.195 154.997 65.008C155.082 70.359 153.571 74.478 152.581 76.672C155.448 80.131 159.975 86.547 162.083 95.667C162.834 98.916 166.94 116.648 155.087 131.907C142.679 147.881 122.027 145.431 121.095 147.637C120.163 149.843 125.059 153.934 127.361 162.514C129.663 171.094 128.688 187.493 128.688 187.493" stroke="black" stroke-width="4" stroke-miterlimit="10" stroke-linecap="round" stroke-linejoin="round"/>
</svg>
