<svg width="216" height="213" viewBox="0 0 216 213" fill="none" xmlns="http://www.w3.org/2000/svg">
<g id="icon">
<g id="logo">
<path id="Vector" d="M158.607 102.506C158.944 116.877 159.72 138.029 158 144C156.279 149.971 150.207 155.639 145.046 157.966C139.885 160.294 71.166 158.978 67.522 157.966C63.878 156.954 58.413 149.161 57.199 146.327C55.985 143.493 56.592 74.268 58.009 68.5C59.426 62.731 64.385 59.391 68.939 57.367C73.493 55.343 122.511 56.153 131.484 56.557C140.458 56.962 148.419 61.415 149.094 68.094C149.769 74.774 145.112 77.472 139.58 77C134.048 76.528 130.354 71.292 133.516 67.298C136.679 63.304 154.353 62.325 156.783 67.487C159.214 72.649 159.312 85.111 155.973 88.14C152.635 91.169 130.774 87.042 127.422 88.332C124.07 89.622 140.693 102.605 129.838 122.536C122.725 134.003 107.166 139.357 94.795 132.853C81.224 125.717 79.139 108.355 83.814 97.216C84.395 95.831 89.935 82.961 102.942 81.2C110.581 80.166 125.207 83.477 120.147 88.031C115.087 92.585 73.997 86.918 64.079 88.942" stroke="black" stroke-width="4" stroke-miterlimit="10" stroke-linecap="round" stroke-linejoin="round"/>
</g>
<g id="out">
<path id="logo_2" d="M78.728 7.94699C20.574 26.142 -10.736 88.888 8.41402 142.7C27.111 195.239 87.004 221.882 139.319 205.123C192.355 188.133 225.226 130.393 209.334 76.743C183.999 -6.96401 99.089 1.33799 95.823 3.36399" stroke="black" stroke-width="4" stroke-miterlimit="10" stroke-linecap="round" stroke-linejoin="round"/>
</g>
</g>
</svg>
