<svg width="211" height="217" viewBox="0 0 211 217" fill="none" xmlns="http://www.w3.org/2000/svg">
<g id="icon">
<g id="out">
<path id="Vector" d="M6.367 81.308C-8.888 140.302 27.866 200.022 83.676 212.173C138.167 224.037 192.417 187.242 205.808 133.964C219.384 79.953 187.705 21.55 133.753 6.71799C49.289 -15.965 11.505 60.527 11.501 64.37" stroke="black" stroke-width="4" stroke-miterlimit="10" stroke-linecap="round" stroke-linejoin="round"/>
</g>
<g id="logo">
<path id="linkedin" d="M78.662 144.972C78.302 123.921 79.64 83.54 77.717 81.55C75.794 79.56 60.671 73.627 57.834 69.079C54.996 64.531 55.823 55.417 65.96 55.405C76.097 55.393 77.379 64.071 74.74 69.715C72.1 75.359 57.156 79.526 55.452 81.82C53.748 84.114 53.023 150.1 55.452 151.719C57.881 153.338 88.378 153.203 91.076 151.179C93.775 149.155 87.702 83.709 91.076 82.089C94.45 80.469 108.483 80.2 110.238 81.01C111.992 81.82 110.913 88.702 112.127 89.376C113.341 90.051 122.298 78.199 136.416 79.93C146.876 81.212 156.253 90.051 157.737 98.822C159.221 107.593 158.636 133.367 158.277 150.639C151.08 150.909 143.883 151.314 136.687 151.584C136.417 137.01 137.767 117.984 135.877 107.998C133.988 98.012 113.549 98.149 113.747 107.998C113.945 117.847 115.366 151.584 111.048 151.449" stroke="black" stroke-width="4" stroke-miterlimit="10" stroke-linecap="round" stroke-linejoin="round"/>
</g>
</g>
</svg>
