<svg width="217" height="211" viewBox="0 0 217 211" fill="none" xmlns="http://www.w3.org/2000/svg">
<g id="icon">
<g id="logo">
<path id="Vector" d="M63.122 79.336C67.936 90.034 103.597 121.237 106.985 121.416C110.373 121.595 165.647 72.026 164.042 68.638C162.437 65.25 52.246 64.18 49.214 67.568C46.183 70.956 47.252 145.665 49.927 147.805C52.602 149.945 161.01 150.123 163.328 146.379C165.646 142.635 168.142 88.965 165.111 85.756" stroke="black" stroke-width="4" stroke-miterlimit="10" stroke-linecap="round" stroke-linejoin="round"/>
</g>
<g id="in">
<path id="Vector_2" d="M81.268 205.352C140.304 220.441 199.921 183.52 211.916 127.676C223.627 73.152 186.68 19.005 133.365 5.76398C79.315 -7.66002 21.002 24.183 6.32099 78.176C-16.126 162.703 60.472 200.273 64.315 200.266" stroke="black" stroke-width="4" stroke-miterlimit="10" stroke-linecap="round" stroke-linejoin="round"/>
</g>
</g>
</svg>
