<svg xmlns="http://www.w3.org/2000/svg" version="1.0" preserveAspectRatio="xMidYMid meet" viewBox="1009.14 358.18 1494.86 1585.82">
<metadata>
Created by potrace 1.16, written by Peter Selinger 2001-2019
</metadata>
<g transform="translate(0.000000,1944.000000) scale(0.100000,-0.100000)" fill="#000000" stroke="none">
<path d="M13840 15849 c-70 -4 -130 -13 -154 -23 -21 -9 -86 -23 -145 -30 -58 -8 -119 -20 -136 -26 -16 -6 -95 -19 -175 -30 -152 -20 -297 -43 -390 -60 -30 -6 -84 -15 -120 -21 -36 -6 -96 -21 -135 -34 -38 -13 -90 -27 -115 -30 -25 -4 -63 -13 -85 -22 -69 -26 -84 -33 -107 -43 -13 -5 -66 -24 -118 -41 -52 -17 -122 -44 -155 -59 -114 -52 -133 -60 -149 -60 -9 0 -39 -9 -68 -21 -31 -12 -93 -24 -149 -29 -61 -5 -114 -16 -142 -29 -25 -12 -54 -21 -63 -21 -15 0 -79 -37 -157 -92 -28 -19 -181 -98 -191 -98 -3 0 -32 -19 -63 -43 -32 -24 -72 -49 -88 -55 -32 -13 -87 -60 -120 -103 -24 -30 -178 -115 -281 -154 -132 -51 -238 -165 -304 -327 -15 -37 -35 -74 -44 -83 -9 -9 -16 -23 -16 -31 0 -8 -9 -27 -20 -42 -12 -17 -23 -56 -30 -107 -5 -44 -15 -111 -21 -150 -6 -38 -9 -101 -7 -140 4 -68 41 -230 58 -250 16 -21 48 -210 60 -365 9 -118 23 -199 40 -229 7 -15 8 -27 0 -41 -6 -11 -11 -36 -11 -57 -1 -95 3 -168 10 -178 5 -5 11 -34 14 -63 4 -29 15 -68 26 -85 10 -18 27 -72 36 -122 24 -135 50 -212 111 -342 24 -50 44 -99 44 -107 0 -9 5 -16 10 -16 6 0 10 -7 10 -16 0 -8 16 -48 35 -88 19 -40 35 -76 35 -80 0 -4 11 -32 25 -62 14 -30 25 -59 25 -65 0 -5 8 -26 19 -47 10 -20 21 -56 24 -79 3 -23 17 -68 33 -100 15 -32 28 -74 28 -93 0 -19 4 -38 10 -42 12 -8 16 -197 3 -222 -6 -12 -6 -16 1 -12 6 3 13 -2 16 -11 2 -10 4 -2 3 17 0 19 3 41 7 49 5 7 10 90 12 185 2 94 6 239 9 321 4 131 6 163 13 210 1 6 17 26 35 46 30 34 47 42 122 56 17 3 36 11 44 17 11 8 15 8 18 -1 6 -18 60 -16 67 2 4 11 23 15 83 14 97 -1 173 5 196 15 10 5 17 4 17 -2 0 -11 68 -22 72 -11 2 4 15 5 31 2 18 -4 27 -12 27 -24 0 -11 7 -19 15 -19 8 0 15 5 15 11 0 6 9 9 20 6 13 -3 20 0 20 9 0 8 5 14 10 14 6 0 10 -5 10 -11 0 -6 9 -8 20 -4 33 10 77 -4 83 -27 4 -14 11 -19 23 -14 9 3 23 1 31 -6 11 -9 16 -9 23 2 5 9 19 11 43 7 30 -5 38 -2 52 19 8 13 23 24 33 24 15 0 15 2 2 10 -10 6 -11 10 -2 10 6 0 12 10 12 23 0 18 5 23 28 22 20 0 27 5 26 18 -1 9 2 17 7 17 13 0 11 27 -3 50 -7 10 -9 23 -5 27 5 4 12 1 17 -7 6 -8 10 -10 10 -5 0 9 -19 41 -36 64 -2 2 -10 -2 -19 -9 -11 -9 -15 -9 -15 -1 0 7 -4 10 -9 6 -5 -3 -12 -1 -16 5 -9 15 -35 12 -35 -5 0 -10 -9 -14 -25 -13 -14 1 -25 8 -25 15 0 17 -17 17 -24 1 -3 -7 -3 -3 0 9 4 19 -1 23 -33 32 -21 5 -65 8 -98 7 -37 -1 -77 5 -106 16 -60 22 -211 29 -246 11 -34 -17 -53 -16 -53 3 0 8 -5 12 -11 9 -6 -4 -8 -13 -5 -20 2 -7 -6 -17 -20 -24 -23 -10 -35 1 -14 14 6 3 17 19 25 35 l15 30 -26 -10 c-20 -8 -31 -7 -43 3 -21 18 -61 28 -61 15 0 -5 -6 -3 -14 4 -18 18 -72 14 -95 -6 -23 -21 -29 -8 -23 52 2 26 9 42 17 42 8 0 29 18 48 40 19 22 41 40 50 40 10 0 17 5 17 10 0 6 9 10 20 10 11 0 20 5 20 10 0 6 7 10 15 10 9 0 12 -6 9 -15 -7 -17 21 -21 31 -5 4 6 15 8 25 5 10 -3 21 -1 25 5 3 5 15 10 26 10 13 0 18 4 13 12 -5 8 9 10 54 5 34 -3 62 -1 62 3 0 4 17 6 39 3 22 -3 41 -1 45 5 8 13 60 -1 82 -22 18 -19 34 -21 34 -4 0 9 3 9 12 0 14 -14 52 -16 43 -3 -3 6 10 5 32 -1 20 -5 49 -7 65 -4 15 3 40 1 56 -5 15 -6 49 -12 77 -14 36 -2 54 -9 67 -25 10 -12 22 -18 28 -15 7 4 14 -2 17 -14 6 -23 15 -26 43 -11 13 7 22 6 32 -3 22 -22 50 -34 98 -42 25 -4 48 -13 52 -19 6 -8 8 -7 8 2 0 6 7 12 15 12 8 0 14 -5 12 -12 -1 -6 9 -14 23 -18 15 -4 24 -13 24 -23 -1 -12 6 -17 23 -17 13 0 22 -4 19 -9 -6 -9 32 -48 43 -43 3 2 8 -5 11 -15 3 -11 14 -18 30 -18 14 0 33 -9 42 -20 12 -14 20 -16 25 -9 5 6 40 14 78 17 39 3 64 4 58 1 -18 -8 -16 -34 2 -34 8 0 15 7 15 15 0 19 5 19 38 -2 45 -30 69 -56 88 -100 10 -24 24 -43 32 -43 7 0 11 -4 8 -9 -3 -4 3 -16 14 -26 12 -11 19 -29 18 -49 -1 -17 2 -43 6 -59 7 -24 3 -32 -29 -62 -20 -19 -30 -35 -23 -35 9 -1 8 -4 -4 -13 -19 -15 -26 -47 -14 -66 6 -10 5 -12 -3 -7 -8 5 -14 0 -18 -13 -3 -12 -21 -28 -40 -37 -45 -22 -55 -42 -41 -90 6 -21 12 -43 12 -49 2 -22 22 -43 51 -52 21 -7 30 -16 30 -30 0 -29 12 -38 30 -23 18 15 45 6 45 -15 0 -8 5 -15 12 -15 6 0 19 -7 29 -16 9 -8 32 -16 49 -16 22 -1 34 -7 37 -19 6 -20 30 -32 45 -22 7 3 8 1 4 -5 -5 -9 7 -12 40 -12 37 0 45 -3 36 -12 -7 -7 -12 -22 -12 -34 0 -12 -5 -24 -11 -26 -8 -3 -6 -10 6 -21 9 -10 18 -23 19 -30 1 -6 5 -18 9 -24 5 -7 6 -17 3 -22 -9 -14 49 -21 86 -11 48 14 117 12 167 -6 25 -8 55 -13 68 -9 14 3 23 1 23 -6 0 -8 12 -10 37 -6 66 11 59 24 -24 42 -43 9 -90 22 -104 30 -17 8 -32 9 -42 3 -29 -16 -86 -12 -107 7 l-20 18 22 24 c12 13 33 23 47 23 34 0 44 9 59 45 8 20 37 46 85 76 94 61 139 79 215 86 54 5 62 4 62 -11 0 -9 -6 -19 -14 -22 -25 -10 -30 -97 -10 -154 18 -51 83 -139 113 -153 9 -4 -32 -5 -91 -2 -75 4 -109 2 -114 -6 -5 -9 3 -10 27 -6 21 4 40 1 51 -7 26 -19 247 -8 288 15 12 7 11 8 -5 9 -11 0 7 11 39 25 90 37 136 104 139 201 2 51 3 55 24 49 12 -3 38 -15 58 -26 31 -19 35 -25 35 -64 0 -39 -3 -45 -37 -66 -21 -13 -39 -27 -41 -31 -2 -4 -8 -8 -14 -8 -5 0 -21 -9 -35 -20 -14 -11 -31 -20 -38 -20 -19 0 -107 -41 -101 -47 2 -3 32 4 65 16 34 12 72 21 86 21 14 0 25 5 25 10 0 15 23 12 75 -11 37 -16 49 -18 55 -8 5 6 22 12 40 11 18 0 29 2 26 5 -3 4 7 14 23 24 39 24 49 65 20 90 -12 10 -28 19 -36 19 -7 0 -13 5 -13 10 0 6 1 10 3 10 13 0 154 -33 166 -39 29 -14 159 -5 176 13 9 9 27 16 40 16 25 0 55 23 56 43 0 7 4 4 7 -6 7 -16 9 -16 25 3 16 19 16 20 -3 20 -23 0 -27 25 -6 33 7 3 17 22 20 42 5 24 14 39 29 45 20 8 20 9 3 9 -16 1 -17 4 -8 13 10 10 15 10 22 -2 13 -20 12 -26 -5 -44 -8 -8 -15 -17 -15 -20 0 -3 7 -6 15 -6 9 0 15 -9 15 -25 0 -22 4 -25 35 -25 25 0 35 -4 35 -16 0 -11 5 -14 16 -10 9 3 17 6 19 6 2 0 1 8 -2 19 -6 22 5 30 41 33 14 1 26 8 26 16 0 9 7 11 20 7 29 -9 25 9 -5 25 -14 8 -23 20 -21 27 3 7 1 13 -4 13 -6 0 -10 -18 -10 -41 0 -24 -4 -38 -10 -34 -12 7 -10 55 3 73 7 8 4 19 -8 32 -14 15 -15 20 -4 20 8 0 20 -9 27 -20 16 -25 42 -26 42 -1 0 26 10 51 21 51 5 0 9 -7 9 -17 0 -9 3 -13 7 -9 9 9 10 49 1 56 -4 3 11 6 33 6 21 1 39 -2 39 -7 0 -5 -5 -9 -10 -9 -13 0 -7 -53 6 -57 6 -2 16 7 23 19 7 14 21 23 36 23 23 0 29 -9 28 -42 -1 -7 5 -13 13 -13 21 0 28 -22 10 -32 -23 -13 -20 -27 4 -21 16 4 19 2 14 -11 -3 -9 -1 -23 5 -30 8 -10 9 -16 1 -21 -7 -4 -7 -12 1 -26 5 -11 7 -29 4 -39 -4 -11 -3 -20 2 -20 5 0 10 -11 11 -26 1 -14 7 -34 13 -46 6 -11 13 -47 14 -79 4 -63 11 -83 26 -74 5 4 9 -5 9 -18 0 -14 7 -44 15 -67 8 -23 15 -55 15 -71 0 -15 5 -31 10 -34 6 -3 10 -25 10 -49 0 -23 3 -46 7 -50 9 -9 11 -31 16 -151 l3 -101 -35 -27 c-20 -16 -44 -26 -53 -23 -10 2 -21 0 -24 -5 -3 -5 4 -9 15 -9 12 0 21 -4 21 -10 0 -5 -5 -10 -11 -10 -13 0 -40 -26 -38 -37 0 -4 -17 -18 -40 -30 -33 -17 -38 -23 -26 -33 8 -6 19 -9 25 -5 5 3 10 1 10 -5 0 -5 -13 -9 -28 -8 -15 1 -33 -1 -40 -6 -7 -4 -12 -1 -12 8 0 18 -18 20 -40 6 -13 -8 -12 -10 3 -10 9 0 17 -7 17 -16 0 -10 -7 -14 -22 -12 -17 2 -24 -3 -26 -19 -3 -17 -10 -23 -28 -23 -13 0 -24 -4 -24 -10 0 -5 -10 -11 -22 -11 -17 -1 -19 -2 -5 -6 18 -5 24 -23 7 -23 -6 0 -26 -15 -45 -34 -18 -19 -36 -32 -39 -29 -8 9 -66 -21 -66 -34 0 -7 -9 -20 -19 -30 -11 -10 -23 -31 -26 -46 -5 -18 -12 -26 -21 -23 -8 3 -14 1 -14 -4 0 -6 -6 -10 -12 -10 -7 0 -25 -15 -40 -33 l-26 -34 24 5 c30 5 32 -12 2 -25 -13 -5 -26 -25 -32 -48 -14 -47 -32 -56 -39 -18 -3 18 0 31 11 39 10 7 13 16 9 21 -5 4 -13 0 -18 -10 -6 -9 -17 -17 -24 -17 -8 0 -15 -4 -15 -10 0 -5 5 -10 10 -10 11 0 13 -30 4 -54 -3 -9 -13 -16 -21 -16 -11 0 -13 -7 -8 -28 7 -32 -24 -68 -50 -59 -8 4 -15 2 -15 -3 0 -6 11 -10 25 -10 14 0 25 -4 25 -10 0 -5 -6 -10 -14 -10 -22 0 -30 -19 -16 -35 10 -13 8 -15 -13 -15 -28 0 -35 -12 -31 -57 1 -23 -2 -33 -12 -33 -8 0 -14 -9 -14 -20 0 -11 -5 -20 -11 -20 -7 0 -9 -10 -5 -25 8 -30 -3 -77 -15 -69 -5 3 -9 -9 -9 -26 0 -18 -6 -33 -15 -36 -11 -5 -13 -10 -5 -19 8 -9 6 -14 -6 -19 -13 -5 -15 -14 -10 -44 6 -36 6 -37 -8 -12 -9 14 -15 33 -16 44 0 15 -3 16 -14 6 -8 -6 -13 -17 -10 -25 3 -7 0 -16 -5 -20 -6 -3 -9 -11 -6 -16 4 -5 -1 -9 -9 -9 -9 0 -18 -11 -22 -25 -3 -13 -14 -27 -23 -30 -14 -4 -17 -15 -15 -48 2 -23 6 -51 9 -62 4 -15 -3 -26 -30 -42 -19 -13 -41 -23 -49 -23 -19 0 -56 -47 -56 -71 0 -11 -4 -19 -10 -19 -5 0 -10 5 -10 11 0 6 -8 9 -17 7 -10 -2 -18 -12 -18 -22 0 -11 -6 -21 -12 -23 -7 -3 -13 1 -13 7 0 6 -7 19 -16 28 -15 15 -16 14 -10 -5 11 -33 -3 -71 -28 -77 -12 -3 -28 -16 -34 -30 -8 -18 -20 -25 -51 -28 -23 -2 -41 0 -41 4 0 5 -7 8 -15 8 -8 0 -15 5 -15 10 0 6 12 9 27 8 18 -2 28 2 31 13 2 12 -4 15 -30 11 -32 -5 -32 -4 -17 14 21 25 34 64 20 64 -6 0 -9 6 -7 13 18 56 17 67 -8 67 -19 0 -29 11 -52 56 -32 64 -45 72 -80 54 -21 -12 -26 -11 -37 5 -12 15 -17 16 -36 5 -21 -11 -22 -10 -16 9 5 15 2 21 -9 21 -9 0 -16 -7 -16 -16 0 -12 -7 -15 -25 -12 -14 3 -25 3 -25 1 0 -2 16 -19 35 -39 19 -19 35 -39 35 -44 0 -5 10 -16 22 -24 17 -12 20 -18 10 -28 -19 -19 -14 -28 13 -28 29 0 31 -7 9 -38 -17 -25 -34 -29 -34 -7 0 8 -4 15 -10 15 -5 0 -10 6 -10 14 0 8 -7 16 -15 20 -8 3 -15 12 -15 20 0 9 -14 18 -35 22 -19 3 -33 11 -32 18 1 6 -10 12 -25 14 -18 2 -28 9 -28 20 0 15 -2 15 -11 2 -9 -12 -10 -10 -6 8 4 15 0 25 -9 29 -8 3 -14 11 -14 17 0 18 -49 38 -73 30 -12 -4 -29 -16 -39 -28 -9 -11 -17 -16 -18 -9 -1 32 -80 18 -80 -15 0 -7 -7 -20 -15 -29 -12 -11 -19 -12 -29 -4 -11 9 -16 9 -21 0 -4 -6 -19 -9 -36 -5 -15 3 -31 1 -34 -4 -8 -13 -58 -13 -70 -1 -6 5 -42 14 -81 19 -40 6 -87 17 -105 25 -53 23 -115 38 -132 31 -9 -3 -26 0 -39 7 -13 7 -26 12 -30 11 -3 -1 -31 -2 -62 -3 -39 -2 -56 -6 -56 -16 0 -7 -12 -13 -27 -14 l-28 -1 25 -8 25 -8 -25 -1 c-14 -1 -32 -5 -39 -10 -9 -6 -22 -6 -32 -1 -13 7 -18 5 -22 -11 -6 -21 -34 -21 -29 0 3 15 -4 14 -32 -4 -20 -14 -27 -14 -61 1 -27 11 -41 12 -48 5 -6 -6 -28 -11 -48 -11 -28 0 -42 -6 -53 -22 -9 -12 -16 -17 -16 -10 0 8 -13 11 -44 8 -48 -5 -67 12 -40 34 15 13 19 31 7 29 -20 -3 -34 2 -28 11 3 6 -1 10 -10 10 -9 0 -13 -4 -10 -10 3 -5 0 -10 -7 -10 -8 0 -9 -3 -3 -8 15 -10 12 -35 -4 -40 -10 -3 -12 0 -8 11 4 10 -2 17 -15 21 -24 6 -38 0 -38 -15 0 -6 5 -7 10 -4 15 9 25 -24 11 -38 -9 -9 -14 -8 -21 3 -11 17 -26 5 -32 -25 -4 -21 -34 -27 -56 -11 -9 7 -16 5 -23 -5 -6 -10 -9 -11 -9 -1 0 7 -5 10 -10 7 -6 -4 -16 -2 -23 3 -17 13 -58 22 -51 11 3 -6 -5 -7 -20 -3 -17 4 -31 1 -41 -10 -20 -20 -34 -20 -41 -1 -4 8 -10 12 -15 9 -20 -12 -38 17 -32 52 4 25 1 40 -11 53 -14 15 -15 24 -7 39 9 17 6 22 -19 32 -16 7 -35 18 -41 26 -22 27 -62 16 -105 -29 -22 -23 -43 -50 -47 -60 -5 -13 -13 -16 -28 -12 -19 6 -20 4 -13 -32 4 -21 11 -41 17 -44 5 -4 6 -12 3 -18 -4 -6 -1 -11 6 -11 7 0 2 -7 -10 -16 -17 -11 -20 -19 -13 -28 7 -9 7 -16 -1 -24 -9 -9 -8 -18 2 -36 7 -14 10 -36 8 -50 -4 -22 -2 -26 18 -26 13 0 24 5 24 10 0 17 35 11 50 -9 7 -11 18 -17 23 -14 6 3 15 -1 21 -9 10 -13 36 -21 104 -30 6 -1 12 -6 12 -12 0 -7 3 -8 8 -1 14 21 62 45 87 45 32 0 106 37 123 62 7 10 18 16 23 13 5 -3 7 0 4 7 -5 13 7 16 92 19 24 0 40 5 37 10 -3 5 40 9 98 9 57 0 272 1 478 3 338 2 378 0 406 -15 17 -10 35 -14 39 -10 10 10 95 11 95 1 0 -4 17 -10 38 -12 32 -3 34 -5 15 -11 -25 -9 -37 -35 -27 -60 7 -18 24 -22 24 -5 0 8 4 8 13 2 6 -6 21 -13 32 -17 16 -6 18 -5 8 5 -7 7 -13 16 -13 20 0 7 50 -6 81 -22 9 -4 20 -4 25 1 5 5 36 12 68 14 46 4 71 0 115 -17 54 -22 91 -25 91 -7 0 10 47 19 72 12 14 -3 18 -10 14 -27 -4 -17 1 -25 22 -35 25 -12 26 -13 7 -20 -19 -7 -19 -7 3 -14 22 -7 22 -8 5 -21 -17 -13 -17 -14 0 -20 21 -9 22 -28 3 -44 -8 -7 -12 -19 -10 -29 3 -10 -9 -31 -26 -49 -17 -18 -27 -34 -23 -34 4 -1 22 -2 38 -3 23 -1 29 -5 27 -18 -2 -10 2 -26 8 -37 8 -16 5 -21 -20 -33 -17 -7 -30 -19 -30 -25 0 -7 -11 -13 -25 -13 -20 0 -25 -5 -25 -25 0 -21 5 -25 32 -25 34 0 29 -14 -7 -23 -15 -3 -13 -5 8 -6 18 -1 27 -6 24 -13 -2 -8 -16 -12 -33 -10 l-29 2 33 -14 c40 -18 44 -51 7 -60 -30 -8 -32 -19 -5 -46 12 -12 18 -25 15 -30 -8 -13 -42 -13 -48 0 -3 6 -4 5 -3 -2 1 -7 17 -18 36 -24 25 -8 34 -17 36 -38 3 -27 -28 -66 -51 -66 -7 0 -20 -9 -29 -19 -13 -15 -14 -20 -4 -23 9 -3 5 -9 -10 -17 -12 -6 -22 -18 -22 -27 0 -8 -11 -20 -25 -26 -14 -6 -25 -15 -25 -20 0 -5 -14 -14 -30 -20 -18 -6 -32 -19 -36 -33 -4 -14 -15 -25 -32 -28 -15 -3 -42 -19 -61 -36 -35 -32 -61 -40 -61 -20 0 8 -4 8 -14 0 -7 -6 -20 -9 -29 -5 -8 3 -18 1 -22 -5 -3 -6 -17 -11 -30 -11 -12 0 -26 -7 -29 -16 -3 -8 -10 -12 -16 -9 -9 5 -52 -14 -88 -39 -7 -5 -28 -10 -47 -11 -19 -1 -43 -9 -53 -18 -10 -10 -28 -17 -40 -17 -12 0 -47 -10 -79 -22 -48 -18 -78 -22 -173 -22 -63 1 -109 -1 -102 -4 7 -2 9 -8 6 -13 -3 -6 -16 -3 -31 7 -18 11 -28 13 -32 5 -4 -6 -23 -16 -41 -21 -28 -8 -37 -7 -51 9 -10 10 -15 22 -12 25 4 3 -1 6 -10 6 -9 0 -20 -7 -25 -15 -11 -20 -115 -26 -149 -8 -19 10 -35 10 -69 2 -35 -9 -52 -8 -90 5 -26 9 -50 14 -52 11 -3 -3 0 -5 6 -5 17 0 15 -27 -3 -34 -9 -3 -15 0 -15 10 0 8 -4 13 -9 10 -13 -8 -3 -65 15 -83 8 -9 23 -17 32 -18 36 -3 122 -44 138 -64 6 -8 15 -11 21 -8 14 9 83 -12 83 -24 0 -6 -4 -7 -10 -4 -5 3 -10 2 -10 -4 0 -5 9 -13 20 -16 21 -7 28 -45 8 -45 -6 0 -2 -9 11 -21 18 -17 20 -23 10 -36 -10 -12 -10 -16 1 -23 9 -6 17 -4 22 3 4 7 8 8 8 1 0 -5 -5 -15 -12 -22 -9 -9 -7 -16 6 -31 10 -11 15 -24 12 -29 -3 -5 6 -14 20 -21 16 -7 22 -15 17 -24 -4 -6 -8 -24 -9 -39 -1 -20 4 -28 19 -30 11 -2 22 -10 24 -18 4 -13 3 -13 -6 0 -9 13 -11 13 -11 -2 0 -10 5 -18 10 -18 6 0 10 -6 10 -14 0 -10 9 -14 27 -13 20 1 28 -3 28 -15 0 -9 9 -23 19 -31 11 -8 21 -28 22 -46 1 -18 5 -43 8 -56 4 -14 2 -25 -4 -25 -5 0 -10 -7 -10 -15 0 -17 45 -38 63 -29 7 3 1 -4 -12 -15 -13 -12 -21 -25 -17 -28 4 -4 10 -3 14 3 9 14 36 4 40 -15 1 -7 -2 -19 -9 -27 -6 -8 -8 -22 -4 -31 15 -37 14 -83 -3 -93 -14 -8 -11 -10 13 -11 17 -1 23 -3 13 -6 -25 -6 -22 -22 6 -33 46 -17 42 -35 -6 -31 -10 1 -18 -2 -18 -8 0 -12 45 -26 58 -17 4 3 6 -8 4 -25 -3 -17 0 -29 7 -29 6 0 11 -9 11 -20 0 -12 -7 -20 -16 -20 -26 0 -9 -25 19 -28 31 -4 30 -2 17 -36 -11 -30 -4 -56 16 -56 8 0 14 -4 14 -9 0 -5 3 -16 6 -25 4 -12 0 -16 -15 -16 -12 0 -21 -6 -21 -15 0 -17 16 -20 25 -5 9 15 25 12 25 -5 0 -8 7 -15 15 -15 18 0 20 -27 3 -33 -7 -2 -9 -8 -5 -13 4 -5 12 -2 16 5 11 17 34 4 27 -16 -3 -8 -2 -11 3 -8 5 3 12 1 16 -5 3 -5 17 -7 31 -4 19 5 24 2 24 -14 0 -11 6 -23 13 -25 9 -4 8 -8 -3 -16 -23 -17 6 -32 38 -20 32 12 37 7 12 -16 -23 -21 -26 -35 -6 -35 18 0 29 -42 13 -52 -35 -22 -39 -27 -33 -43 5 -14 9 -15 21 -5 11 9 15 9 15 1 0 -6 -11 -17 -25 -23 -18 -8 -22 -14 -14 -24 6 -8 6 -14 0 -18 -5 -3 -12 0 -15 6 -3 7 -5 1 -3 -13 3 -23 1 -25 -22 -21 -23 5 -24 3 -13 -10 8 -10 9 -19 3 -22 -5 -4 -12 -2 -16 3 -10 17 -60 7 -59 -12 2 -20 -12 -23 -20 -4 -3 8 -8 7 -16 -5 -6 -10 -20 -18 -31 -18 -12 0 -17 -4 -14 -11 4 -5 12 -8 18 -6 7 2 22 0 34 -4 13 -5 48 -11 80 -14 63 -6 68 -8 60 -30 -4 -8 -6 -18 -6 -21 1 -14 -26 -22 -33 -11 -5 8 -8 6 -8 -5 0 -10 -11 -25 -24 -33 -15 -10 -26 -29 -29 -52 -4 -19 -14 -44 -23 -54 -13 -14 -14 -19 -4 -19 9 0 8 -5 -5 -13 -13 -10 -16 -21 -11 -40 3 -14 2 -29 -4 -32 -5 -3 -10 -13 -10 -22 0 -38 -56 -123 -81 -123 -4 0 -11 -9 -14 -20 -3 -11 -12 -20 -18 -20 -7 0 -23 -16 -37 -35 -28 -40 -54 -42 -56 -5 -1 14 -7 50 -12 80 -6 30 -26 141 -45 245 -18 105 -36 197 -39 205 -3 8 -11 42 -18 75 -7 32 -16 66 -20 75 -5 8 -16 52 -26 98 -10 46 -21 85 -26 88 -4 3 -8 17 -8 32 0 43 -18 95 -45 127 l-25 30 6 -37 c6 -35 3 -39 -62 -100 -100 -92 -233 -227 -279 -282 -22 -26 -49 -58 -60 -69 -11 -12 -34 -40 -50 -62 -42 -58 -128 -159 -139 -164 -5 -2 -37 -32 -70 -67 -133 -138 -156 -173 -156 -241 0 -32 -6 -57 -15 -67 -8 -8 -15 -18 -15 -21 0 -11 -32 -78 -45 -95 -6 -8 -18 -31 -25 -50 -8 -19 -17 -37 -21 -40 -4 -3 -19 -31 -33 -64 -20 -45 -26 -75 -26 -130 l0 -72 69 -66 c39 -37 79 -69 90 -73 12 -3 21 -10 21 -14 0 -9 95 -73 123 -84 9 -4 21 -17 27 -31 5 -13 13 -25 17 -27 11 -5 53 -197 122 -559 11 -58 25 -121 31 -140 18 -57 25 -405 10 -486 -7 -38 -16 -73 -20 -79 -4 -5 -14 -37 -21 -70 -7 -33 -18 -71 -24 -85 -7 -14 -18 -55 -24 -92 -6 -36 -18 -79 -26 -95 -8 -15 -15 -35 -15 -43 0 -17 -21 -79 -32 -96 -4 -6 -16 -47 -27 -90 -11 -44 -32 -119 -46 -169 -29 -100 -55 -207 -90 -365 -13 -58 -24 -105 -25 -105 -2 0 -6 -17 -26 -120 -10 -49 -20 -92 -23 -95 -7 -6 -10 -17 -29 -115 -9 -44 -18 -82 -21 -85 -3 -3 -7 -9 -8 -15 -1 -5 -13 -63 -27 -127 -15 -64 -33 -152 -41 -195 -8 -43 -16 -87 -19 -98 -3 -11 -14 -60 -26 -110 -11 -49 -22 -97 -24 -105 -6 -22 -24 -98 -36 -155 -6 -27 -13 -61 -16 -75 -3 -14 -9 -41 -14 -60 -4 -19 -11 -66 -15 -103 -4 -37 -13 -80 -21 -95 -9 -18 -14 -60 -14 -124 0 -95 1 -98 31 -133 l31 -35 6919 0 c3805 0 6919 4 6919 9 0 5 -17 20 -37 33 -68 45 -186 149 -210 186 -31 45 -76 100 -130 158 -24 25 -43 49 -43 53 0 3 -10 18 -23 33 -12 15 -33 44 -47 63 -27 38 -66 91 -105 140 -63 80 -81 104 -95 125 -8 12 -48 64 -87 115 -40 52 -73 98 -73 104 0 6 -9 16 -20 23 -11 7 -20 17 -20 21 0 5 -24 40 -52 78 -29 38 -75 101 -103 140 -27 40 -58 80 -67 90 -10 11 -18 21 -18 25 0 9 -104 136 -156 190 -71 73 -122 131 -195 219 -35 43 -73 88 -84 100 -11 12 -27 32 -35 45 -8 13 -25 35 -37 49 -13 14 -47 58 -77 96 -30 39 -64 79 -75 91 -12 12 -21 26 -21 32 0 7 -9 17 -20 24 -11 7 -20 17 -20 21 0 7 -86 125 -122 167 -7 9 -22 29 -32 45 -11 16 -28 38 -38 49 -10 11 -18 23 -18 26 0 4 -10 18 -22 32 -13 14 -33 38 -45 54 -96 125 -185 232 -276 329 -68 74 -128 139 -232 254 -22 24 -51 57 -65 72 -14 15 -56 62 -95 105 -38 43 -117 128 -174 189 -56 60 -112 119 -122 130 -10 12 -19 25 -19 29 0 5 -10 19 -22 31 -13 12 -36 45 -53 74 -16 29 -34 58 -40 65 -5 6 -19 27 -29 46 -10 19 -33 53 -50 75 -17 22 -45 60 -61 85 -73 111 -230 285 -510 565 -104 105 -221 220 -260 257 -69 65 -237 237 -430 438 -103 109 -251 239 -384 338 -75 57 -107 79 -206 140 -27 17 -55 35 -60 39 -6 5 -26 17 -45 27 -19 11 -37 22 -40 26 -5 6 -59 35 -135 71 -22 11 -47 24 -55 29 -8 5 -70 36 -137 71 -68 34 -123 65 -123 69 0 3 -16 12 -35 20 -19 8 -35 18 -35 22 0 5 -12 14 -27 21 -16 7 -47 25 -70 40 -24 15 -45 27 -48 27 -3 0 -13 7 -22 15 -127 111 -177 140 -323 194 -47 17 -92 35 -100 40 -9 5 -54 16 -100 26 -47 9 -94 21 -105 26 -11 5 -53 16 -93 24 -40 8 -81 19 -90 24 -9 4 -55 14 -102 20 -47 7 -96 14 -110 18 -14 3 -115 8 -225 12 -183 7 -207 10 -280 36 -44 15 -98 40 -120 54 -60 40 -76 50 -120 72 -22 11 -47 24 -55 29 -19 12 -114 54 -165 73 -80 29 -131 49 -160 62 -16 7 -37 15 -46 18 -9 3 -19 17 -23 30 -5 21 -79 151 -103 182 -9 12 -42 71 -74 135 -12 25 -26 47 -30 50 -4 3 -14 28 -22 55 -8 28 -54 131 -102 229 -71 146 -96 187 -139 230 -66 65 -101 90 -151 106 -22 7 -45 17 -52 22 -16 13 -148 8 -187 -7 -17 -7 -46 -18 -63 -24 -18 -7 -33 -17 -33 -22 0 -5 -6 -9 -13 -9 -7 0 -22 -8 -33 -19 -23 -21 -58 -41 -72 -41 -6 0 -15 26 -21 58 -12 62 -13 65 -29 104 -6 14 -14 57 -17 95 -8 82 -12 108 -15 108 -3 0 -6 25 -18 141 -12 105 -19 135 -35 146 -14 8 -10 193 3 193 1 0 3 18 5 40 3 45 12 98 27 165 6 25 11 69 11 98 0 28 4 52 9 52 5 0 8 42 7 94 -1 89 0 95 27 125 15 17 35 31 44 31 9 0 20 4 26 9 5 5 36 16 69 26 64 18 214 86 236 107 8 7 41 31 74 53 73 50 130 107 181 182 21 32 42 60 47 61 4 2 7 10 7 18 0 8 5 14 11 14 5 0 8 4 4 9 -3 5 -1 12 5 16 5 3 10 15 10 26 0 10 4 19 9 19 5 0 17 35 27 78 9 42 21 82 25 88 5 6 7 19 3 27 -3 9 -2 22 2 29 5 7 9 24 10 38 1 14 4 45 7 70 3 25 8 83 12 130 4 47 10 87 14 90 8 6 10 33 14 240 2 91 -1 181 -5 200 -5 19 -13 53 -19 75 -15 68 -32 115 -40 115 -4 0 -10 11 -13 25 -6 24 -152 175 -169 175 -5 0 -22 9 -38 21 -21 15 -27 25 -20 33 6 7 9 110 9 251 0 132 3 267 6 300 4 33 9 80 12 105 8 78 16 125 24 135 7 8 32 145 46 246 2 14 10 38 19 55 8 16 15 37 15 47 0 9 4 17 8 17 6 0 23 47 36 100 1 3 9 25 19 50 21 55 28 149 15 198 -5 20 -11 48 -12 62 -1 14 -4 30 -7 35 -3 6 -7 30 -8 55 -1 25 -9 70 -18 100 -9 30 -17 60 -18 65 -1 6 -4 17 -7 25 -3 8 -11 44 -18 80 -6 36 -15 67 -20 70 -4 3 -15 30 -24 60 -9 30 -32 87 -50 125 -24 47 -34 83 -33 109 0 23 -4 41 -11 44 -7 2 -12 15 -12 30 0 14 -7 34 -17 44 -14 16 -14 22 -3 43 7 13 18 23 24 22 17 -3 19 52 3 76 -8 12 -20 46 -26 75 -7 28 -16 52 -19 52 -4 0 -5 22 -4 49 4 51 -2 64 -98 231 -21 36 -41 76 -45 90 -5 14 -35 67 -67 119 -33 52 -67 113 -75 135 -9 23 -20 45 -25 51 -4 5 -8 16 -8 24 0 15 -45 114 -93 206 -30 59 -101 160 -173 245 -73 88 -227 240 -242 240 -6 0 -35 20 -65 44 -62 50 -100 70 -177 90 -50 13 -114 40 -164 67 -27 16 -215 76 -260 84 -21 3 -46 10 -55 15 -35 19 -239 82 -283 87 -26 3 -104 0 -175 -6 -76 -7 -146 -9 -173 -4 -25 5 -97 5 -160 2z m131 -3115 c2 2 17 6 33 10 23 6 27 4 23 -8 -5 -11 0 -16 13 -16 10 0 23 -6 27 -14 5 -8 27 -16 52 -18 27 -2 46 -9 49 -17 3 -8 0 -11 -5 -8 -11 7 -27 -45 -24 -75 2 -12 -5 -18 -20 -18 -18 0 -19 -2 -9 -15 17 -21 10 -26 -46 -31 -49 -5 -68 -18 -59 -43 4 -11 2 -11 -9 -2 -8 7 -15 8 -18 2 -1 -5 -24 -15 -50 -22 -41 -11 -51 -11 -81 6 -34 18 -74 15 -62 -5 3 -5 0 -10 -8 -10 -23 0 -31 -33 -11 -47 14 -10 13 -12 -12 -10 -16 1 -30 8 -30 15 -1 6 -2 16 -3 20 0 4 -17 6 -37 4 -32 -4 -35 -2 -30 15 4 13 -1 26 -14 38 -26 23 -25 36 3 60 19 17 20 20 5 23 -13 2 -18 13 -18 38 0 43 17 44 50 4 14 -16 30 -30 37 -30 7 0 13 -4 13 -10 0 -12 50 -13 65 -2 15 11 14 52 -2 52 -8 0 -12 4 -9 9 3 4 1 22 -4 40 -5 19 -5 31 1 31 5 0 9 -4 9 -8 0 -5 11 -14 24 -20 21 -9 25 -7 35 14 8 19 16 24 31 19 30 -10 60 4 60 27 0 16 3 18 13 9 8 -6 16 -9 18 -7z m209 -575 c0 -8 -12 -12 -72 -24 -10 -2 -21 1 -24 7 -3 5 -11 3 -17 -6 -7 -8 -21 -16 -31 -18 -11 -1 -21 -9 -24 -17 -4 -11 2 -12 29 -7 19 4 50 10 69 12 19 3 44 9 55 14 36 16 180 19 206 4 l24 -13 -29 -1 c-24 0 -27 -2 -16 -15 13 -16 35 -21 26 -7 -3 5 10 9 29 10 19 1 35 -3 35 -9 0 -6 4 -8 9 -5 5 3 29 -3 52 -14 38 -17 40 -20 19 -21 -14 -1 -28 -1 -32 0 -15 2 -8 -27 7 -33 17 -6 21 -36 4 -36 -5 0 -7 -5 -3 -11 5 -8 9 -8 14 1 4 7 13 9 19 6 6 -4 9 -12 6 -17 -4 -5 -1 -9 5 -9 6 0 20 -9 32 -20 12 -11 29 -20 37 -20 13 0 13 2 2 9 -11 7 -11 10 0 17 7 4 14 3 17 -4 2 -7 8 -10 13 -6 5 3 9 -2 9 -10 0 -8 5 -18 12 -22 8 -5 9 -2 5 9 -6 17 12 24 26 11 7 -7 -12 -44 -33 -61 -13 -11 -12 -12 8 -13 31 0 64 -32 56 -54 -4 -9 -13 -15 -20 -12 -8 3 -29 -8 -48 -24 -18 -17 -43 -30 -54 -30 -12 0 -23 -9 -27 -20 -3 -11 -12 -20 -18 -20 -7 0 -22 -3 -34 -6 -18 -5 -25 -1 -32 17 l-10 24 0 -22 c-1 -23 -15 -31 -25 -14 -4 5 -1 11 6 13 6 2 8 10 4 17 -6 9 -12 9 -26 -4 -16 -15 -18 -15 -24 1 -5 13 -14 15 -41 10 -26 -5 -37 -3 -41 8 -3 8 -12 12 -20 9 -8 -3 -14 -1 -14 5 0 5 -17 13 -37 17 -21 4 -42 10 -48 15 -5 4 -58 7 -117 7 -97 0 -107 -2 -112 -19 -3 -15 -10 -18 -27 -13 -14 5 -25 2 -30 -6 -5 -8 -9 -9 -9 -3 0 17 -354 -37 -374 -57 -6 -5 -18 -9 -28 -9 -10 0 -29 -6 -41 -14 -12 -8 -47 -16 -77 -17 -30 -1 -60 -6 -66 -10 -16 -13 -114 -18 -120 -7 -4 6 -10 5 -15 -3 -7 -11 -9 -11 -9 2 0 9 7 22 15 29 8 7 15 18 15 24 0 7 10 23 23 36 12 14 22 31 22 40 0 10 8 14 23 12 16 -2 20 1 16 12 -4 11 0 16 14 16 28 0 72 38 65 55 -6 17 13 20 23 4 5 -8 10 -6 16 5 5 9 12 15 16 13 4 -2 17 7 29 20 19 20 20 23 5 24 -14 0 -14 2 3 9 11 5 26 9 34 9 11 1 11 -2 0 -16 -12 -14 -12 -15 1 -10 8 4 22 10 31 13 8 3 23 19 33 35 10 16 22 27 27 24 5 -4 5 5 -1 20 -14 36 -6 45 41 45 21 0 39 5 39 11 0 21 30 39 82 50 29 6 60 14 68 17 20 7 36 10 90 16 25 3 49 11 54 19 10 15 206 22 206 6z m748 -221 c7 -7 12 -21 12 -31 0 -12 5 -17 14 -14 8 3 17 -1 20 -9 3 -8 15 -14 26 -14 19 0 21 -4 15 -30 -8 -38 3 -90 19 -90 18 0 35 -21 29 -36 -3 -8 -15 -14 -27 -14 -17 0 -18 -2 -6 -10 12 -8 9 -10 -12 -10 -18 0 -28 5 -28 15 0 7 -7 18 -17 23 -9 5 -17 19 -18 30 0 11 -9 27 -18 36 -9 10 -17 26 -17 35 0 10 -7 24 -15 31 -8 7 -15 27 -15 44 l1 31 14 -25 c11 -20 14 -21 15 -7 0 10 -5 27 -10 38 -12 21 -1 26 18 7z m-925 -252 c87 -15 147 -34 147 -48 0 -5 9 -8 19 -8 22 0 56 -29 46 -39 -10 -9 -214 -14 -385 -9 -25 1 -70 -2 -100 -7 -30 -4 -66 -7 -80 -7 -42 1 -187 19 -162 21 13 0 20 6 17 11 -3 6 1 10 9 10 9 0 16 5 16 10 0 6 6 10 13 10 6 0 24 6 38 14 22 11 72 25 114 31 6 0 17 4 25 8 14 6 66 11 155 15 22 1 80 -4 128 -12z m1968 -1349 c17 -14 30 -37 35 -62 9 -49 11 -80 4 -81 -22 -3 -50 -28 -50 -44 0 -11 -4 -20 -10 -20 -5 0 -10 -7 -10 -15 0 -8 -4 -15 -10 -15 -5 0 -10 -7 -10 -15 0 -9 -14 -17 -37 -21 -47 -8 -99 -39 -120 -70 -19 -30 -57 -31 -77 -2 -39 55 2 102 85 100 39 -1 51 4 74 28 18 18 24 33 19 42 -12 18 -13 91 -2 105 5 7 7 21 3 32 -3 10 -3 31 1 46 6 24 10 26 42 20 20 -4 48 -16 63 -28z"/>
<path d="M11980 11591 c0 -19 55 -52 77 -48 22 4 27 -3 24 -30 -1 -7 3 -22 9 -32 13 -24 -5 -39 -18 -15 -5 9 -25 22 -45 29 -30 10 -34 10 -29 -3 4 -12 -1 -11 -27 4 -26 15 -35 16 -51 6 -28 -17 -48 -15 -24 2 14 11 16 18 8 26 -12 12 -64 3 -64 -11 0 -5 -5 -9 -11 -9 -5 0 -8 4 -4 10 3 5 -16 12 -44 16 -28 4 -48 10 -45 15 3 5 -6 9 -20 9 -14 0 -26 3 -26 8 0 4 -87 7 -193 6 -261 -2 -376 -28 -457 -104 -39 -37 -27 -53 17 -23 42 28 92 51 156 73 83 28 267 36 372 17 84 -16 155 -41 155 -56 0 -4 -64 -8 -142 -7 -158 1 -293 -16 -350 -45 -21 -11 -47 -19 -58 -19 -25 0 -100 -37 -100 -50 0 -5 -9 -12 -20 -15 -11 -3 -20 -13 -20 -21 0 -8 -8 -14 -17 -14 -10 0 -26 -7 -36 -14 -18 -14 -18 -14 0 -19 14 -3 11 -7 -14 -16 -33 -13 -36 -43 -4 -40 9 1 25 1 36 0 17 -1 18 -3 4 -11 -20 -11 -14 -60 7 -60 8 0 14 -4 14 -10 0 -5 6 -7 14 -4 8 3 17 1 21 -5 3 -6 0 -11 -7 -11 -7 0 1 -7 17 -16 20 -11 44 -14 73 -10 24 3 42 2 42 -4 0 -6 7 -10 15 -10 8 0 15 7 15 17 0 15 2 15 19 -1 16 -15 23 -16 42 -6 19 11 24 10 35 -5 14 -19 44 -14 44 7 0 9 -3 8 -10 -2 -8 -13 -10 -13 -10 1 0 12 -13 18 -42 23 -23 4 -57 18 -74 31 -18 14 -37 25 -43 25 -17 0 -51 52 -51 79 0 39 44 98 82 109 68 21 105 28 188 34 27 2 34 0 32 -12 -2 -8 -4 -39 -3 -68 0 -55 28 -119 74 -169 11 -13 17 -29 13 -38 -3 -9 -2 -13 3 -10 5 3 13 0 16 -6 4 -5 14 -7 24 -4 27 12 154 33 199 33 23 0 48 4 54 9 17 10 51 10 59 0 3 -4 49 -1 102 7 114 19 120 19 112 6 -3 -5 3 -10 14 -10 16 0 21 -6 21 -25 0 -33 11 -31 32 5 9 16 28 32 43 36 19 5 24 11 20 24 -4 11 1 20 12 24 14 6 15 9 4 15 -7 5 -10 14 -7 20 4 6 12 9 17 6 5 -3 7 6 4 22 -3 15 -6 48 -8 71 -2 24 -10 47 -17 52 -11 7 -11 12 -2 23 14 16 -8 71 -35 86 -14 7 -13 10 6 20 12 7 19 16 16 22 -4 5 -3 9 2 10 64 6 64 19 0 19 -50 0 -57 -2 -57 -20 0 -23 -15 -27 -24 -5 -3 8 -12 15 -21 15 -8 0 -15 3 -15 8 0 4 -7 16 -15 26 -12 16 -17 17 -30 6 -12 -10 -19 -10 -27 -2 -14 14 -48 16 -48 3z"/>
<path d="M13255 10071 c-4 -17 -19 -40 -33 -51 -15 -11 -33 -25 -41 -31 -10 -9 -18 -9 -34 0 -16 10 -21 10 -28 -1 -5 -7 -9 -8 -9 -3 0 6 -21 16 -47 24 -27 7 -58 16 -69 21 -56 22 -114 22 -172 0 -31 -12 -64 -26 -72 -31 -31 -19 -66 -32 -94 -34 -16 -2 -33 -10 -38 -19 -5 -9 -16 -16 -24 -16 -8 0 -17 -7 -20 -15 -4 -8 -11 -15 -18 -15 -6 0 -35 -22 -64 -49 -29 -28 -61 -52 -71 -56 -11 -3 -22 -19 -26 -36 -9 -39 -37 -52 -112 -50 -38 1 -63 -2 -63 -9 0 -5 0 -12 0 -15 -1 -19 -55 -55 -83 -55 -43 0 -53 -9 -60 -52 -5 -35 -4 -38 19 -38 17 0 27 -8 34 -25 9 -25 30 -35 30 -14 0 5 4 8 10 4 5 -3 7 -12 3 -20 -3 -10 1 -15 14 -15 27 0 35 11 20 28 -10 14 -9 15 8 8 11 -5 39 -10 61 -12 35 -2 43 0 47 18 5 16 3 18 -6 9 -6 -6 -17 -11 -24 -11 -20 0 -15 35 7 55 11 10 19 25 18 34 -2 11 6 17 27 19 17 2 34 8 40 13 5 5 17 9 26 9 10 0 19 3 21 8 4 9 94 72 103 72 3 0 18 11 33 25 25 23 43 30 66 26 5 -1 6 5 2 14 -3 8 0 26 6 40 11 26 42 32 179 40 30 2 87 7 127 10 60 6 72 5 72 -8 0 -8 7 -17 15 -21 18 -7 20 -57 3 -75 -11 -11 -4 -12 36 -7 28 3 52 10 55 14 4 5 22 17 41 28 32 18 67 52 99 97 8 11 14 33 13 48 0 16 3 29 8 29 5 0 7 12 4 28 -3 15 -6 40 -7 56 -3 40 -24 44 -32 7z"/>
<path d="M11823 9993 c-17 -24 -18 -33 -7 -63 6 -19 17 -36 23 -38 9 -3 6 -11 -7 -26 -20 -21 -20 -21 1 -66 19 -39 28 -46 67 -56 39 -9 46 -9 52 5 11 26 9 91 -3 91 -5 0 -7 4 -4 10 4 6 18 1 35 -11 19 -14 36 -20 52 -16 13 4 30 2 38 -3 9 -5 19 -5 27 1 17 14 9 23 -110 119 -108 89 -134 97 -164 53z"/>
<path d="M12480 8614 c0 -5 -30 -10 -68 -12 -70 -3 -162 -27 -162 -42 0 -5 -6 -7 -13 -4 -7 2 -24 -7 -36 -20 -13 -14 -28 -23 -34 -19 -5 3 -6 -3 -2 -17 5 -15 4 -20 -4 -16 -6 4 -11 0 -11 -9 0 -8 7 -18 15 -21 8 -4 15 -10 15 -16 0 -15 27 -38 45 -38 9 0 13 5 10 10 -10 16 5 12 36 -11 16 -11 29 -26 29 -34 0 -12 55 -40 74 -36 4 1 14 -3 21 -9 7 -6 26 -9 43 -8 16 1 37 -4 45 -11 13 -10 20 -10 39 0 13 7 50 14 83 16 44 3 64 9 77 23 9 11 25 20 37 20 11 0 23 5 26 10 3 6 17 10 31 10 13 0 24 5 24 10 0 6 6 10 14 10 19 0 66 57 66 81 0 13 -7 19 -22 19 -19 0 -20 -2 -8 -11 11 -8 9 -9 -10 -3 -14 4 -26 11 -28 15 -2 5 -15 9 -28 9 -13 0 -34 5 -47 12 -12 6 -29 14 -37 18 -8 4 -15 13 -15 21 0 8 -10 14 -23 13 -12 0 -22 3 -22 8 0 4 8 8 17 8 9 0 13 3 9 7 -3 4 -30 8 -59 9 -28 1 -69 5 -89 9 -21 4 -38 3 -38 -1z"/>
</g>
</svg>